<?xml version="1.0" encoding="utf-8"?>
<!-- Generator: Adobe Illustrator 22.1.0, SVG Export Plug-In . SVG Version: 6.00 Build 0)  -->
<svg version="1.1" id="Layer_1" xmlns="http://www.w3.org/2000/svg" xmlns:xlink="http://www.w3.org/1999/xlink" x="0px" y="0px"
	 viewBox="0 0 146.2 46.2" style="enable-background:new 0 0 146.2 46.2;" xml:space="preserve">
<style type="text/css">
	.st0{fill:#454143;}
	.st1{fill:#B1D136;}
	.st2{fill:#3A6CB3;}
</style>
<g>
	<g>
		<path class="st0" d="M67.2,33.5c2.1,0,3.6-0.3,4.6-0.8c1-0.5,1.5-1.4,1.5-2.6c0-1.2-0.5-2.2-1.5-2.9c-1-0.7-2.6-1.5-4.9-2.5
			c-1.1-0.4-2.1-0.9-3.1-1.3c-1-0.5-1.9-1-2.6-1.6c-0.7-0.6-1.3-1.4-1.7-2.2c-0.4-0.9-0.7-1.9-0.7-3.2c0-2.5,0.9-4.5,2.8-6
			S66.1,8,69.3,8c0.8,0,1.6,0,2.4,0.1c0.8,0.1,1.5,0.2,2.2,0.3c0.7,0.1,1.3,0.3,1.8,0.4c0.5,0.1,0.9,0.3,1.2,0.4L76,13.7
			c-0.5-0.3-1.4-0.6-2.6-0.9c-1.2-0.3-2.6-0.5-4.2-0.5c-1.4,0-2.7,0.3-3.7,0.8c-1.1,0.6-1.6,1.4-1.6,2.6c0,0.6,0.1,1.2,0.4,1.6
			c0.2,0.5,0.6,0.9,1.1,1.3c0.5,0.4,1.1,0.7,1.8,1.1c0.7,0.3,1.6,0.7,2.6,1c1.3,0.5,2.5,1,3.6,1.5c1.1,0.5,2,1.1,2.7,1.7
			c0.7,0.7,1.3,1.4,1.7,2.4c0.4,0.9,0.6,2.1,0.6,3.4c0,2.6-1,4.6-2.9,5.9c-1.9,1.3-4.7,2-8.3,2c-2.5,0-4.5-0.2-5.9-0.6
			c-1.4-0.4-2.4-0.7-2.9-1l0.9-4.4c0.6,0.2,1.5,0.5,2.8,1C63.4,33.2,65.1,33.5,67.2,33.5z"/>
		<path class="st0" d="M95.9,37.8c-2.3,0-4.3-0.4-6-1.1c-1.7-0.7-3.2-1.7-4.4-3.1c-1.2-1.3-2.1-2.9-2.6-4.7c-0.6-1.8-0.9-3.8-0.9-6
			s0.3-4.2,1-6c0.6-1.8,1.5-3.4,2.7-4.7c1.2-1.3,2.6-2.4,4.3-3.1C91.6,8.4,93.5,8,95.6,8c1.3,0,2.5,0.1,3.8,0.3
			c1.3,0.2,2.5,0.6,3.7,1l-1.1,4.3c-0.8-0.4-1.6-0.7-2.6-0.9c-1-0.2-2.1-0.3-3.2-0.3c-2.8,0-5,0.9-6.5,2.7c-1.5,1.8-2.3,4.4-2.3,7.8
			c0,1.5,0.2,2.9,0.5,4.2c0.3,1.3,0.9,2.4,1.6,3.3c0.7,0.9,1.7,1.6,2.9,2.1c1.2,0.5,2.6,0.7,4.3,0.7c1.3,0,2.6-0.1,3.7-0.4
			c1.1-0.3,1.9-0.5,2.6-0.8l0.7,4.3c-0.3,0.2-0.7,0.4-1.3,0.5s-1.2,0.3-1.9,0.4c-0.7,0.1-1.4,0.2-2.2,0.3
			C97.4,37.7,96.7,37.8,95.9,37.8z"/>
		<path class="st0" d="M107.6,9.6c1.2-0.3,2.7-0.6,4.6-0.9c1.9-0.3,4.1-0.5,6.6-0.5c1.8,0,3.3,0.2,4.6,0.7c1.2,0.5,2.3,1.2,3.1,2.2
			c0.3-0.2,0.7-0.4,1.2-0.8c0.5-0.3,1.2-0.6,2-1c0.8-0.3,1.7-0.6,2.7-0.8c1-0.2,2-0.4,3.2-0.4c2.2,0,4,0.3,5.3,1
			c1.4,0.6,2.5,1.5,3.2,2.7c0.8,1.2,1.3,2.5,1.6,4.1c0.3,1.6,0.4,3.3,0.4,5.2v15.9h-5.1V22.3c0-1.7-0.1-3.1-0.2-4.3
			c-0.2-1.2-0.5-2.2-0.9-3c-0.5-0.8-1.1-1.4-1.9-1.8c-0.8-0.4-1.8-0.6-3-0.6c-1.7,0-3.1,0.2-4.2,0.7c-1.1,0.5-1.9,0.9-2.3,1.2
			c0.3,0.9,0.5,2,0.7,3.1c0.1,1.1,0.2,2.3,0.2,3.5v15.9h-5.1V22.3c0-1.7-0.1-3.1-0.3-4.3c-0.2-1.2-0.5-2.2-1-3
			c-0.5-0.8-1.1-1.4-1.9-1.8c-0.8-0.4-1.8-0.6-3-0.6c-0.5,0-1.1,0-1.6,0.1c-0.6,0-1.1,0.1-1.7,0.1c-0.5,0.1-1,0.1-1.4,0.2
			c-0.4,0.1-0.7,0.1-0.9,0.2v23.9h-5.1V9.6z"/>
	</g>
	<g>
		<path class="st1" d="M38.1,36"/>
		<path class="st1" d="M16.1,39.9l-1.8,1.8c-1,1-1,2.7,0,3.7c0.5,0.5,1.2,0.8,1.9,0.8s1.3-0.3,1.9-0.8l1.8-1.8L16.1,39.9z"/>
		<path class="st1" d="M11.8,35.6l-3.1,3.1c-1,1-1,2.7,0,3.7c0.5,0.5,1.2,0.8,1.9,0.8s1.3-0.3,1.9-0.8l3.1-3.1L11.8,35.6z"/>
		<path class="st1" d="M7.5,31.3l-2.1,2.1c-1,1-1,2.7,0,3.7c0.5,0.5,1.2,0.8,1.9,0.8s1.3-0.3,1.9-0.8l2.1-2.1L7.5,31.3z"/>
		<path class="st1" d="M3.3,27.1l-0.5,0.5c-1,1-1,2.7,0,3.7C3.3,31.7,4,32,4.7,32c0.7,0,1.3-0.3,1.9-0.8L7,30.8L3.3,27.1z"/>
		<path class="st1" d="M43.6,22.4c-0.7,0-1.3-0.3-1.9-0.8L31.5,11.3c-1.8-1.8-4.8-1.8-6.7,0l-6.5,6.5c-1,1-2.7,1-3.7,0
			c-1-1-1-2.7,0-3.7l6.5-6.5c3.9-3.9,10.2-3.9,14.1,0l10.3,10.3c1,1,1,2.7,0,3.7C45,22.1,44.3,22.4,43.6,22.4z"/>
		<path class="st2" d="M41.3,31.4c-0.7,0-1.3-0.3-1.9-0.8L28.7,19.8c-1-1-1-2.7,0-3.7c1-1,2.7-1,3.7,0l10.8,10.8c1,1,1,2.7,0,3.7
			C42.6,31.1,42,31.4,41.3,31.4z"/>
		<path class="st2" d="M38.4,38.5c-0.7,0-1.3-0.3-1.9-0.8L23.3,24.5c-1-1-1-2.7,0-3.7c1-1,2.7-1,3.7,0L40.3,34c1,1,1,2.7,0,3.7
			C39.8,38.2,39.1,38.5,38.4,38.5z"/>
		<path class="st2" d="M31.3,41.4c-0.7,0-1.3-0.3-1.9-0.8L16.2,27.5c-1-1-1-2.7,0-3.7c1-1,2.7-1,3.7,0L33.1,37c1,1,1,2.7,0,3.7
			C32.6,41.2,31.9,41.4,31.3,41.4z"/>
		<path class="st2" d="M23.4,43.7c-0.7,0-1.3-0.3-1.9-0.8L3,24.3c-1.9-1.9-3-4.4-3-7.1s1-5.2,3-7.1l9.3-9.3c1-1,2.7-1,3.7,0l2.7,2.7
			c1,1,1,2.7,0,3.7c-1,1-2.7,1-3.7,0l-0.8-0.8l-7.4,7.4c-0.9,0.9-1.4,2.1-1.4,3.4c0,1.3,0.5,2.5,1.4,3.4l18.6,18.6c1,1,1,2.7,0,3.7
			C24.8,43.4,24.1,43.7,23.4,43.7z"/>
	</g>
</g>
</svg>
